<svg width="88" height="24" viewBox="0 0 88 24" fill="none" xmlns="http://www.w3.org/2000/svg">
<path d="M19.044 23.4H0.108L0 20.916L11.88 4.14V4.104H5.544L4.824 7.74L0.72 7.38L1.44 0H18.936L19.008 2.196L6.948 19.224V19.296H14.94L15.66 14.976L19.764 15.336L19.044 23.4Z" fill="currentColor"/>
<path d="M39.9192 23.4H21.8472V19.296H24.3672V4.104H21.8472V0H39.7032L40.4232 6.84L36.3192 7.2L35.5992 4.104H29.1912V9.612H39.0552V13.68H29.1912V19.296H35.8152L36.5352 16.2L40.6392 16.56L39.9192 23.4Z" fill="currentColor"/>
<path d="M64.4271 7.92L60.3231 8.28L59.6031 4.104H55.8951V19.296H59.7111V23.4H47.4711V19.296H51.0711V4.104H47.3631L46.6431 8.28L42.5391 7.92L43.2591 0H63.7071L64.4271 7.92Z" fill="currentColor"/>
<path d="M87.7846 23.4H78.4606V19.296H80.3326L79.4686 16.92H71.5126L70.5406 19.296H72.7366V23.4H63.5206V19.296H65.6446L72.3406 4.104H69.1006V0H77.1286L85.5526 19.296H87.7846V23.4ZM78.1726 13.464L75.7246 6.876H75.5086L72.8806 13.464H78.1726Z" fill="currentColor"/>
</svg>
