<svg width="481" height="308" viewBox="0 0 481 308" fill="none" xmlns="http://www.w3.org/2000/svg" xmlns:xlink="http://www.w3.org/1999/xlink">
<g clip-path="url(#clip0_605_11)">
<path d="M317.481 175.537C317.481 177.877 317.329 180.216 317.024 182.555H260.42C260.725 187.234 261.996 190.743 264.234 193.083C266.573 195.321 269.523 196.439 273.083 196.439C278.067 196.439 281.627 194.202 283.763 189.726H315.651C314.328 195.626 311.735 200.915 307.869 205.594C304.106 210.171 299.325 213.782 293.528 216.426C287.73 219.071 281.322 220.393 274.304 220.393C265.861 220.393 258.335 218.613 251.723 215.053C245.213 211.493 240.077 206.407 236.313 199.796C232.652 193.185 230.821 185.403 230.821 176.452C230.821 167.502 232.652 159.771 236.313 153.262C239.975 146.65 245.061 141.564 251.571 138.004C258.182 134.444 265.76 132.665 274.304 132.665C282.746 132.665 290.222 134.394 296.732 137.852C303.241 141.31 308.327 146.294 311.989 152.804C315.651 159.212 317.481 166.79 317.481 175.537ZM286.967 168.061C286.967 164.399 285.747 161.551 283.305 159.517C280.864 157.381 277.813 156.313 274.151 156.313C270.489 156.313 267.489 157.33 265.149 159.365C262.81 161.297 261.284 164.196 260.572 168.061H286.967ZM380.221 193.846V219.325H367.252C345.383 219.325 334.449 208.493 334.449 186.827V158.602H323.922V133.732H334.449V112.983H364.506V133.732H380.068V158.602H364.506V187.285C364.506 189.625 365.014 191.303 366.031 192.32C367.15 193.337 368.981 193.846 371.524 193.846H380.221ZM389.054 176.452C389.054 167.603 390.631 159.873 393.784 153.262C397.039 146.65 401.412 141.564 406.905 138.004C412.499 134.444 418.704 132.665 425.519 132.665C431.418 132.665 436.504 133.834 440.776 136.174C445.048 138.513 448.354 141.666 450.693 145.633V133.732H480.597V219.325H450.693V207.425C448.354 211.391 444.997 214.545 440.623 216.884C436.351 219.223 431.316 220.393 425.519 220.393C418.704 220.393 412.499 218.613 406.905 215.053C401.412 211.493 397.039 206.407 393.784 199.796C390.631 193.083 389.054 185.302 389.054 176.452ZM450.693 176.452C450.693 170.96 449.167 166.637 446.116 163.484C443.166 160.331 439.504 158.754 435.131 158.754C430.655 158.754 426.943 160.331 423.993 163.484C421.043 166.535 419.568 170.858 419.568 176.452C419.568 181.945 421.043 186.319 423.993 189.574C426.943 192.727 430.655 194.303 435.131 194.303C439.504 194.303 443.166 192.727 446.116 189.574C449.167 186.421 450.693 182.047 450.693 176.452Z" fill="white"/>
<g clip-path="url(#clip1_605_11)">
<mask id="mask0_605_11" style="mask-type:alpha" maskUnits="userSpaceOnUse" x="0" y="0" width="308" height="308">
<path d="M15.4002 223.023L233.859 68.6492L155.525 40.685C129.099 31.2513 116.511 40.5769 106.614 58.2377L100.668 68.8473L95.0052 66.8258L118.732 12.6966L286.12 71.3908L61.5196 230.999L152.123 263.344C185.155 275.136 201.753 265.611 217.558 244.263L223.771 235.87L229.095 238.832L196.127 294.968L13.033 229.605L15.4002 223.023Z" fill="black" stroke="black" stroke-width="20"/>
</mask>
<g mask="url(#mask0_605_11)">
<rect x="-83.5538" y="-58.106" width="445.131" height="455.463" fill="url(#paint0_linear_605_11)"/>
<rect x="-83.5538" y="-58.106" width="445.131" height="455.463" fill="url(#pattern0_605_11)" fill-opacity="0.2"/>
<rect x="-83.5538" y="-58.106" width="445.131" height="455.463" stroke="black"/>
</g>
</g>
</g>
<defs>
<linearGradient id="paint0_linear_605_11" x1="139.011" y1="-58.606" x2="139.011" y2="397.857" gradientUnits="userSpaceOnUse">
<stop stop-color="#52C5FF"/>
<stop offset="1" stop-color="#008CFF"/>
</linearGradient>
<clipPath id="clip0_605_11">
<rect width="481" height="308" fill="white"/>
</clipPath>
<clipPath id="clip1_605_11">
<rect width="308" height="308" fill="white"/>
</clipPath>
<pattern id="pattern0_605_11" patternUnits="userSpaceOnUse" patternTransform="matrix(6 0 0 6 -84.0538 -58.606)" preserveAspectRatio="none" viewBox="0 0 6 6" width="1" height="1">
<g id="pattern0_605_11_inner">
<circle cx="3" cy="3" r="3" fill="#0062FF"/>
</g>
</pattern></defs>
</svg>
